<svg xmlns="http://www.w3.org/2000/svg" viewBox="0 0 64 64">
  <path fill="#4E9560" d="M31.7 58c-1.8 0-3.2-1.4-3.2-3.2V36.9c0-1.8 1.4-3.2 3.2-3.2s3.2 1.4 3.2 3.2v17.9c0 1.8-1.4 3.2-3.2 3.2Z"/>
  <path fill="#79B96B" d="M31.8 8.2c8.8 0 15.9 7 15.9 15.7 0 7.5-5.3 13.8-12.4 15.3-1.4.3-2.8.4-4.3.3-8-.4-14.5-6.9-14.9-14.9-.5-9 6.7-16.4 15.7-16.4Z"/>
  <path fill="#8FCB72" d="M18.5 26.4c5.8 0 10.5 4.7 10.5 10.4 0 5.5-4.3 10-9.7 10.4-5.9.4-10.9-4.3-11.2-10.1-.3-5.9 4.5-10.7 10.4-10.7Z"/>
  <path fill="#6BB45F" d="M45.1 26.1c5.9 0 10.7 4.8 10.4 10.7-.3 5.8-5.3 10.5-11.2 10.1-5.4-.4-9.7-4.9-9.7-10.4 0-5.7 4.7-10.4 10.5-10.4Z"/>
  <path fill="#B9E487" opacity=".8" d="M26.1 13.6c3.8-2 8.5-1.8 12.1.6-4.2.2-8.2 1.5-12.1 4.1-2.8 1.9-5 4.2-6.7 7 .1-5 2.6-9.3 6.7-11.7Z"/>
</svg>